<svg width="174" height="35" viewBox="0 0 174 35" fill="none" xmlns="http://www.w3.org/2000/svg">
<path d="M169.676 18.2797C169.393 19.1531 166.466 21.3309 162.991 21.3309C160.889 21.3309 159.816 20.484 159.088 18.7788L166.524 17.3855L170.242 16.6889L173.96 15.9922C174 15.8259 173.96 15.6595 173.96 15.4516C173.758 9.71205 168.608 5.59277 162.991 5.59277C157.212 5.59277 153.147 9.92 153.147 15.8675C153.147 17.1984 153.39 18.5293 153.875 19.7354C155.451 23.936 158.95 26.5979 162.991 26.5979C170.023 26.5979 173.637 20.6504 174 19.6938L169.676 18.2797ZM158.482 14.0791C158.926 11.8332 160.849 9.95597 162.991 9.78961C165.092 9.58166 167.13 10.9598 168.1 12.9561L158.361 14.7445L158.482 14.0791Z" fill="black"/>
<path d="M152.287 5.59277C150.221 5.59277 148.376 6.53201 146.888 8.03077V5.59277H141.675V26.5979H146.888V15.3164C146.888 12.527 149.283 11.4459 151.059 10.844H153.144L155.499 6.98153C154.631 6.60684 153.32 5.59277 152.287 5.59277Z" fill="black"/>
<path d="M134.375 5.59277V17.1456C134.375 19.9349 132.725 21.3466 130.204 21.3466C127.683 21.3466 126.034 19.9349 126.034 17.1456V5.59277H120.82V17.1456C120.82 22.5577 124.078 26.5979 129.161 26.5979C131.228 26.5979 132.887 25.8494 134.375 24.3506V26.5979H139.588V5.59277H134.375Z" fill="black"/>
<path d="M118.742 20.2962C118.028 20.7757 115.977 22.3967 114.572 22.3967C113.415 22.3967 112.487 22.0031 112.487 20.2962V9.79364H118.742V5.59262H112.487V1.3916H107.273V5.59262H104.146V9.79364H112.487L107.273 11.8941V21.3464C107.273 25.6762 109.975 26.5977 113.529 26.5977C117.125 26.5977 119.785 24.4972 119.785 24.4972L118.742 20.2962Z" fill="black"/>
<path d="M94.7695 5.64718C92.703 5.64718 91.0312 6.56308 89.5433 8.10347V1.3916H84.3301V26.5977H89.5433V15.3474C89.5433 12.5165 92.2484 10.5181 94.7695 10.5181C97.2907 10.5181 98.9271 12.5581 98.9271 15.3474V26.5977H104.14V15.1809C104.14 9.81038 99.8531 5.64718 94.7695 5.64718Z" fill="black"/>
<path d="M76.736 5.59277V6.89082C75.0828 5.80838 72.726 5.59277 70.6182 5.59277C64.7493 5.59277 60.0537 10.1836 60.0537 16.0953C60.0537 22.0487 64.6112 26.666 70.4801 26.666C72.6293 26.666 74.7512 26.0416 76.4044 24.9591C76.1978 27.2489 73.8692 29.7486 70.4801 29.7486V34.9999C75.6877 34.9999 81.8252 30.9958 81.9492 24.6677V5.59277H76.736ZM70.4801 21.7118C67.339 21.7118 65.4519 19.4675 65.4519 16.0953C65.4519 12.7647 67.6837 10.263 70.8248 10.263C73.9246 10.263 76.1977 12.7647 76.1977 16.0953C76.1977 19.4675 73.5799 21.7118 70.4801 21.7118Z" fill="black"/>
<path d="M52.7568 26.5979H57.97V5.59277H52.7568V26.5979Z" fill="black"/>
<path d="M42.3283 26.8972C47.7426 26.8972 50.6694 24.3345 50.6694 20.6292C50.6694 13.7183 38.422 14.0097 38.422 11.8032C38.422 10.7624 40.3444 10.0963 42.3283 10.0963C45.8 10.0963 47.5415 11.8936 47.5415 11.8936L50.6694 9.79308C50.6694 9.79308 48.1972 5.29199 42.3283 5.29199C36.914 5.29199 33.9873 8.09796 33.9873 11.8032C33.9873 18.7141 45.8614 18.4227 45.8614 20.6292C45.8614 21.67 44.3535 22.3361 42.3283 22.3361C38.8565 22.3361 36.0726 20.2956 36.0726 20.2956L33.9873 23.4464C33.9873 23.4464 36.5007 26.8972 42.3283 26.8972Z" fill="black"/>
<path d="M24.2153 5.56445C22.1488 5.56445 20.165 6.48036 18.6771 7.97911V5.56445H13.4326V26.5695H18.6771V15.2647C18.6771 12.4754 20.4956 10.477 23.0168 10.477C25.5379 10.477 26.987 12.4337 26.987 15.2231V26.5695H32.2002V15.0982C32.2002 9.68603 29.299 5.56445 24.2153 5.56445Z" fill="black"/>
<ellipse cx="5.54926" cy="5.56272" rx="5.54926" ry="5.56272" fill="url(#paint0_linear_2325_256)"/>
<path d="M5.54785 5.56348H11.0971V26.5396H5.54785V5.56348Z" fill="black"/>
<defs>
<linearGradient id="paint0_linear_2325_256" x1="0" y1="11.1254" x2="11.1254" y2="0.0269484" gradientUnits="userSpaceOnUse">
<stop stop-color="#FF930F"/>
<stop offset="1" stop-color="#FDE235"/>
</linearGradient>
</defs>
</svg>
